<svg width="41" height="40" viewBox="0 0 41 40" fill="none" xmlns="http://www.w3.org/2000/svg">
<path d="M0.0100098 20C0.0100098 8.95431 8.96432 0 20.01 0C31.0557 0 40.01 8.95431 40.01 20C40.01 31.0457 31.0557 40 20.01 40C8.96432 40 0.0100098 31.0457 0.0100098 20Z" fill="white"/>
<path d="M20.01 24.7647C20.4486 24.7647 20.8041 24.4092 20.8041 23.9706C20.8041 23.532 20.4486 23.1765 20.01 23.1765C19.5714 23.1765 19.2159 23.532 19.2159 23.9706C19.2159 24.4092 19.5714 24.7647 20.01 24.7647Z" fill="#0E1C3D"/>
<path d="M17.363 18.4278C17.6553 18.4278 17.8924 18.1908 17.8924 17.8984C17.8924 17.1864 18.6335 16.2941 20.01 16.2941C21.3865 16.2941 22.1277 17.1769 22.1277 17.8824C22.1277 18.6908 21.6454 18.9302 21.1411 19.1805C21.1171 19.1924 21.093 19.2044 21.0688 19.2165C21.0279 19.2369 20.9838 19.2583 20.9373 19.2808C20.3827 19.5496 19.4857 19.9842 19.4857 21.0588V21.5882C19.4857 21.8806 19.7227 22.1177 20.0151 22.1176C20.3075 22.1176 20.5445 21.8806 20.5445 21.5882L20.5445 21.058C20.5442 20.8457 20.6176 20.7233 20.7658 20.6003C20.9262 20.4671 21.1349 20.3645 21.4223 20.2232C21.4703 20.1996 21.5206 20.1748 21.5731 20.1487C21.9052 19.9839 22.3174 19.7666 22.6387 19.4157C22.9798 19.0431 23.1916 18.5523 23.1916 17.8984C23.1916 16.4598 21.8189 15.2353 20.0151 15.2353C18.2128 15.2353 16.8335 16.4586 16.8335 17.8984C16.8335 18.1908 17.0706 18.4278 17.363 18.4278Z" fill="#0E1C3D"/>
<path fill-rule="evenodd" clip-rule="evenodd" d="M11.01 20C11.01 15.0294 15.0394 11 20.01 11C24.9806 11 29.01 15.0294 29.01 20C29.01 24.9706 24.9806 29 20.01 29C15.0394 29 11.01 24.9706 11.01 20ZM20.01 12.0588C15.6242 12.0588 12.0688 15.6142 12.0688 20C12.0688 24.3858 15.6242 27.9412 20.01 27.9412C24.3958 27.9412 27.9512 24.3858 27.9512 20C27.9512 15.6142 24.3958 12.0588 20.01 12.0588Z" fill="#0E1C3D"/>
</svg>
