<svg width="44" height="44" viewBox="0 0 44 44" fill="none" xmlns="http://www.w3.org/2000/svg">
<path d="M0 8C0 5.79086 1.79086 4 4 4H36C38.2091 4 40 5.79086 40 8V40C40 42.2091 38.2091 44 36 44H4C1.79086 44 0 42.2091 0 40V8Z" fill="white"/>
<path fill-rule="evenodd" clip-rule="evenodd" d="M20 16.0588C17.3315 16.0588 14.8267 18.1798 14.8267 21.1412V25.6941C14.8267 25.8946 14.7125 26.078 14.5318 26.1676C13.6028 26.6287 13.0667 27.4207 13.0667 28.2353C13.0667 28.6358 13.2419 28.9116 13.4874 29.1012C13.7487 29.3029 14.0853 29.4 14.3467 29.4H17.5467C17.8412 29.4 18.08 29.637 18.08 29.9294C18.08 30.384 18.1971 30.8976 18.4833 31.2829C18.7506 31.6427 19.2004 31.9412 20 31.9412C20.7996 31.9412 21.2494 31.6427 21.5167 31.2829C21.8029 30.8976 21.92 30.384 21.92 29.9294C21.92 29.637 22.1588 29.4 22.4533 29.4H25.6533C25.9147 29.4 26.2513 29.3029 26.5126 29.1012C26.7581 28.9116 26.9333 28.6358 26.9333 28.2353C26.9333 27.4207 26.3972 26.6287 25.4682 26.1676C25.2875 26.078 25.1733 25.8946 25.1733 25.6941V21.1412C25.1733 18.1799 22.6685 16.0588 20 16.0588ZM13.76 21.1412C13.76 17.5378 16.8018 15 20 15C23.1982 15 26.24 17.5378 26.24 21.1412V25.3811C27.286 26.0059 28 27.0414 28 28.2353C28 28.9995 27.6419 29.5707 27.1674 29.937C26.7087 30.2912 26.1386 30.4588 25.6533 30.4588H22.9489C22.8799 30.9413 22.7089 31.462 22.3752 31.9112C21.8954 32.5573 21.1185 33 20 33C18.8815 33 18.1046 32.5573 17.6248 31.9112C17.2911 31.462 17.1201 30.9413 17.0511 30.4588H14.3467C13.8614 30.4588 13.2913 30.2912 12.8326 29.937C12.3581 29.5707 12 28.9995 12 28.2353C12 27.0414 12.714 26.0062 13.76 25.3814V21.1412Z" fill="#0E1C3D"/>
<circle cx="32" cy="12" r="4" fill="#FC1242"/>
</svg>
