<svg width="41" height="40" viewBox="0 0 41 40" fill="none" xmlns="http://www.w3.org/2000/svg">
<path d="M0.0100098 20C0.0100098 8.95431 8.96432 0 20.01 0C31.0557 0 40.01 8.95431 40.01 20C40.01 31.0457 31.0557 40 20.01 40C8.96432 40 0.0100098 31.0457 0.0100098 20Z" fill="white"/>
<path fill-rule="evenodd" clip-rule="evenodd" d="M20.01 16.8605C18.2761 16.8605 16.8705 18.2661 16.8705 20C16.8705 21.7339 18.2761 23.1395 20.01 23.1395C21.7439 23.1395 23.1495 21.7339 23.1495 20C23.1495 18.2661 21.7439 16.8605 20.01 16.8605ZM20.01 18.1163C21.0504 18.1163 21.8937 18.9596 21.8937 20C21.8937 21.0403 21.0504 21.8837 20.01 21.8837C18.9697 21.8837 18.1263 21.0403 18.1263 20C18.1263 18.9596 18.9697 18.1163 20.01 18.1163Z" fill="#0E1C3D"/>
<path fill-rule="evenodd" clip-rule="evenodd" d="M19.1728 11L19.0526 11.0049C18.3393 11.0628 17.7704 11.6316 17.7125 12.345L17.711 12.3713L17.5319 13.0964L16.8805 13.3668L16.2457 12.9834C15.6703 12.4726 14.7892 12.4929 14.238 13.044L13.0541 14.228L12.959 14.3326C12.5136 14.8721 12.5136 15.6559 12.959 16.1955L12.99 16.23L13.3768 16.8705L13.1064 17.5219L12.3835 17.7005C11.617 17.7478 11.01 18.3844 11.01 19.1628V20.8372L11.0149 20.9574C11.0728 21.6707 11.6416 22.2396 12.355 22.2975L12.3822 22.2981L13.1064 22.4773L13.3768 23.1287L12.9918 23.7661C12.4827 24.3415 12.5034 25.2214 13.0541 25.772L14.238 26.956L14.3426 27.051C14.8821 27.4964 15.6659 27.4964 16.2055 27.051L16.2401 27.0192L16.8805 26.6324L17.5319 26.9028L17.7104 27.6254C17.7572 28.3924 18.394 29 19.1728 29H20.8472L20.9674 28.9951C21.6807 28.9372 22.2496 28.3684 22.3075 27.655L22.3081 27.627L22.4873 26.9028L23.1387 26.6324L23.7732 27.0156C24.3485 27.5274 25.2304 27.5075 25.782 26.956L26.966 25.772L27.061 25.6674C27.5065 25.1279 27.5065 24.3441 27.061 23.8045L27.0292 23.7691L26.6424 23.1287L26.9128 22.4773L27.6299 22.2999C28.3995 22.2559 29.01 21.6179 29.01 20.8372V19.1628L29.0052 19.0426C28.9472 18.3293 28.3784 17.7604 27.6651 17.7025L27.6378 17.701L26.9128 17.5219L26.6424 16.8705L27.024 16.2386C27.5374 15.6633 27.5181 14.7801 26.966 14.228L25.782 13.044L25.6775 12.949C25.1379 12.5036 24.3541 12.5036 23.8145 12.949L23.7791 12.98L23.1387 13.3668L22.4873 13.0964L22.3098 12.3791C22.2653 11.61 21.6275 11 20.8472 11H19.1728ZM19.1728 12.2558H20.8472C20.9463 12.2558 21.0293 12.3247 21.051 12.4171L21.0749 12.6159L21.3448 13.7067C21.3927 13.9003 21.5297 14.0596 21.714 14.136L22.9516 14.6486C23.1359 14.7249 23.3455 14.7091 23.5162 14.6061L24.4783 14.0257L24.598 13.932C24.6797 13.8503 24.8122 13.8503 24.894 13.932L26.078 15.116C26.1461 15.1841 26.1574 15.2875 26.112 15.3674L25.9843 15.5317L25.4039 16.4938C25.3009 16.6646 25.2851 16.8741 25.3614 17.0584L25.8741 18.296C25.9504 18.4803 26.1097 18.6173 26.3033 18.6652L27.3941 18.9351L27.5449 18.9535C27.6605 18.9535 27.7542 19.0472 27.7542 19.1628V20.8372C27.7542 20.9363 27.6853 21.0193 27.5929 21.041L27.3941 21.0649L26.3033 21.3348C26.1097 21.3827 25.9504 21.5197 25.8741 21.704L25.3614 22.9416C25.2851 23.1259 25.3009 23.3354 25.4039 23.5062L25.9843 24.4683L26.078 24.588C26.1597 24.6697 26.1597 24.8022 26.078 24.884L24.894 26.068C24.8259 26.1361 24.7225 26.1474 24.6426 26.102L24.4783 25.9743L23.5162 25.3939C23.3455 25.2909 23.1359 25.2751 22.9516 25.3514L21.714 25.864C21.5297 25.9404 21.3927 26.0997 21.3448 26.2933L21.0749 27.3841L21.0565 27.5349C21.0565 27.6505 20.9628 27.7442 20.8472 27.7442H19.1728C19.0737 27.7442 18.9907 27.6753 18.969 27.5829L18.9451 27.3841L18.6752 26.2933C18.6273 26.0997 18.4903 25.9404 18.306 25.864L17.0684 25.3514C16.8841 25.2751 16.6746 25.2909 16.5038 25.3939L15.5417 25.9743L15.422 26.068C15.3403 26.1497 15.2078 26.1497 15.126 26.068L13.942 24.884C13.8739 24.8159 13.8626 24.7125 13.908 24.6326L14.0357 24.4683L14.6161 23.5062C14.7192 23.3354 14.7349 23.1259 14.6586 22.9416L14.146 21.704C14.0696 21.5197 13.9103 21.3827 13.7167 21.3348L12.6259 21.0649L12.4751 21.0465C12.3595 21.0465 12.2658 20.9528 12.2658 20.8372V19.1628C12.2658 19.0637 12.3347 18.9807 12.4271 18.959L12.6259 18.9351L13.7167 18.6652C13.9103 18.6173 14.0696 18.4803 14.146 18.296L14.6586 17.0584C14.7349 16.8741 14.7192 16.6646 14.6161 16.4938L14.0357 15.5317L13.942 15.412C13.8603 15.3303 13.8603 15.1978 13.942 15.116L15.126 13.932C15.1942 13.8639 15.2975 13.8526 15.3774 13.898L15.5417 14.0257L16.5038 14.6061C16.6746 14.7091 16.8841 14.7249 17.0684 14.6486L18.306 14.136C18.4903 14.0596 18.6273 13.9003 18.6752 13.7067L18.9451 12.6159L18.9635 12.4651C18.9635 12.3495 19.0572 12.2558 19.1728 12.2558Z" fill="#0E1C3D"/>
</svg>
